<svg id="Layer_1" data-name="Layer 1" xmlns="http://www.w3.org/2000/svg" viewBox="0 0 100 100"><defs><style>.cls-1{fill:#3d49f2;}</style></defs><title>Artboard 12</title><path class="cls-1" d="M50,90A40,40,0,0,1,10.9,58.33a2.49,2.49,0,1,1,4.88-1,35,35,0,0,0,68.93-2.92,2.5,2.5,0,0,1,5,.61A40,40,0,0,1,50,90Z"/><path class="cls-1" d="M13.37,44.54a2.46,2.46,0,0,1-.53-.06,2.49,2.49,0,0,1-1.91-3,40,40,0,0,1,62.39-24,2.5,2.5,0,1,1-2.92,4.06A34.68,34.68,0,0,0,50,15,35.16,35.16,0,0,0,15.81,42.57,2.5,2.5,0,0,1,13.37,44.54Z"/><circle class="cls-1" cx="50" cy="50" r="4.37"/><path class="cls-1" d="M50,61.87A11.87,11.87,0,1,1,60.28,44.06,2.5,2.5,0,1,1,56,46.57a6.87,6.87,0,1,0,0,6.86,2.5,2.5,0,1,1,4.33,2.51A11.94,11.94,0,0,1,50,61.87Z"/><path class="cls-1" d="M50,75.92a25.63,25.63,0,0,1-10.37-2.16,2.5,2.5,0,1,1,2-4.58A20.68,20.68,0,0,0,50,70.92,21,21,0,0,0,70.51,54.19a2.49,2.49,0,1,1,4.89,1A25.93,25.93,0,0,1,50,75.92Z"/><path class="cls-1" d="M28.36,61.47a2.51,2.51,0,0,1-2.31-1.55,25.67,25.67,0,0,1-2-9.92A25.92,25.92,0,0,1,68.33,31.67,2.5,2.5,0,0,1,64.8,35.2,20.94,20.94,0,0,0,30.66,58a2.52,2.52,0,0,1-2.3,3.46Z"/><circle class="cls-1" cx="33.44" cy="66.56" r="3.12"/><circle class="cls-1" cx="77.93" cy="25.02" r="3.12"/><circle class="cls-1" cx="12.52" cy="50" r="3.12"/><path class="cls-1" d="M93.72,47.81H58.12a2.5,2.5,0,1,1,0-5h35.6a2.5,2.5,0,1,1,0,5Z"/><path class="cls-1" d="M73,57.18H58.12a2.5,2.5,0,1,1,0-5H73a2.5,2.5,0,1,1,0,5Z"/><path class="cls-1" d="M93.72,57.18H87.19a2.5,2.5,0,1,1,0-5h6.53a2.5,2.5,0,1,1,0,5Z"/></svg>